<svg width="82" height="93" viewBox="0 0 82 93" fill="none" xmlns="http://www.w3.org/2000/svg">
<rect width="82" height="93" rx="8" fill="#F0C53E"/>
<path fill-rule="evenodd" clip-rule="evenodd" d="M19.5 67.1282C18.149 67.1282 17.05 66.2921 17.05 65.2643V42.3659C17.05 41.3381 18.149 40.5021 19.5 40.5021H61.5C62.851 40.5021 63.95 41.3381 63.95 42.3659V65.2643C63.95 66.2921 62.851 67.1282 61.5 67.1282H19.5Z" fill="#EE5060"/>
<path fill-rule="evenodd" clip-rule="evenodd" d="M21.6 67.9263C20.9077 67.9263 20.2311 68.0825 19.6555 68.3751C19.0799 68.6676 18.6313 69.0835 18.3664 69.57C18.1015 70.0565 18.0322 70.5919 18.1672 71.1084C18.3023 71.6249 18.6356 72.0993 19.1251 72.4717C19.6146 72.8441 20.2382 73.0977 20.9172 73.2004C21.5961 73.3032 22.2998 73.2504 22.9394 73.0489C23.5789 72.8474 24.1255 72.5061 24.5101 72.0682C24.8947 71.6304 25.1 71.1156 25.1 70.589V67.9263H21.6Z" fill="#2C2D32"/>
<path d="M21.6 72.1875C22.7598 72.1875 23.7 71.4722 23.7 70.5898C23.7 69.7073 22.7598 68.992 21.6 68.992C20.4402 68.992 19.5 69.7073 19.5 70.5898C19.5 71.4722 20.4402 72.1875 21.6 72.1875Z" fill="#495E74"/>
<path fill-rule="evenodd" clip-rule="evenodd" d="M59.4 67.9263C60.0923 67.9263 60.769 68.0825 61.3445 68.3751C61.9201 68.6676 62.3687 69.0835 62.6336 69.57C62.8985 70.0565 62.9678 70.5919 62.8328 71.1084C62.6977 71.6249 62.3644 72.0993 61.8749 72.4717C61.3854 72.8441 60.7618 73.0977 60.0828 73.2004C59.4039 73.3032 58.7002 73.2504 58.0606 73.0489C57.4211 72.8474 56.8745 72.5061 56.4899 72.0682C56.1053 71.6304 55.9 71.1156 55.9 70.589V67.9263H59.4Z" fill="#2C2D32"/>
<path d="M59.4 72.1875C60.5598 72.1875 61.5 71.4722 61.5 70.5898C61.5 69.7073 60.5598 68.992 59.4 68.992C58.2402 68.992 57.3 69.7073 57.3 70.5898C57.3 71.4722 58.2402 72.1875 59.4 72.1875Z" fill="#495E74"/>
<path fill-rule="evenodd" clip-rule="evenodd" d="M49.6 39.7033V23.7277C49.6 23.304 49.3787 22.8976 48.9849 22.598C48.5911 22.2984 48.0569 22.1301 47.5 22.1301H33.5C32.943 22.1301 32.4089 22.2984 32.0151 22.598C31.6212 22.8976 31.4 23.304 31.4 23.7277V39.7033H28.6V22.6626C28.6 21.9564 28.9687 21.2792 29.6251 20.7799C30.2815 20.2805 31.1717 20 32.1 20H48.9C49.8282 20 50.7185 20.2805 51.3748 20.7799C52.0312 21.2792 52.4 21.9564 52.4 22.6626V39.7033H49.6Z" fill="#495E74"/>
<path fill-rule="evenodd" clip-rule="evenodd" d="M52.3706 23.1952V22.4422C52.2215 21.0768 50.734 20 48.9 20H32.1C31.1717 20 30.2815 20.2805 29.6251 20.7799C28.9687 21.2792 28.6 21.9565 28.6 22.6626V24.7927C28.6 25.0752 28.7475 25.3461 29.01 25.5458C29.2726 25.7456 29.6287 25.8578 30 25.8578C30.3713 25.8578 30.7274 25.7456 30.9899 25.5458C31.2525 25.3461 31.4 25.0752 31.4 24.7927V23.7277C31.4 23.304 31.6212 22.8976 32.0151 22.598C32.4089 22.2984 32.943 22.1301 33.5 22.1301H47.5C48.0569 22.1301 48.5911 22.2984 48.9849 22.598C49.3787 22.8976 49.6 23.304 49.6 23.7277V24.7927C49.6 25.0752 49.7475 25.3461 50.01 25.5458C50.2726 25.7456 50.6287 25.8578 51 25.8578C51.3713 25.8578 51.7274 25.7456 51.9899 25.5458C52.2525 25.3461 52.4 25.0752 52.4 24.7927V23.1952H52.3706Z" fill="#2C2D32"/>
<path fill-rule="evenodd" clip-rule="evenodd" d="M49.6294 39.7033H55.242L59.4 42.8665L46.7517 52.4886L39.7874 47.1905L49.6294 39.7033Z" fill="#EBECED"/>
<path fill-rule="evenodd" clip-rule="evenodd" d="M28.6 39.7033H31.4V64.7319H28.6V39.7033ZM49.6 39.7033H52.4V64.7319H49.6V39.7033Z" fill="#B25A59"/>
<path fill-rule="evenodd" clip-rule="evenodd" d="M31.4 52.4838H28.6C28.2287 52.4838 27.8726 52.596 27.6101 52.7958C27.3475 52.9956 27.2 53.2665 27.2 53.549V55.6793C27.2 55.9618 27.3475 56.2328 27.6101 56.4325C27.8726 56.6323 28.2287 56.7445 28.6 56.7445H31.4C31.7713 56.7445 32.1274 56.6323 32.3899 56.4325C32.6525 56.2328 32.8 55.9618 32.8 55.6793V53.549C32.8 53.2665 32.6525 52.9956 32.3899 52.7958C32.1274 52.596 31.7713 52.4838 31.4 52.4838ZM31.4 55.6793H28.6V53.549H31.4V55.6793Z" fill="#F0C419"/>
<path fill-rule="evenodd" clip-rule="evenodd" d="M51 62.6017L49.6 61.5367V67.9269H52.4V61.5367L51 62.6017ZM28.6 61.5367V67.9269H31.4V61.5367L30 62.6017L28.6 61.5367ZM30 52.4838C30.1856 52.4838 30.3637 52.4277 30.4949 52.3279C30.6262 52.228 30.7 52.0925 30.7 51.9513C30.7 51.8101 30.6262 51.6746 30.4949 51.5748C30.3637 51.4749 30.1856 51.4188 30 51.4188C29.8143 51.4188 29.6363 51.4749 29.505 51.5748C29.3737 51.6746 29.3 51.8101 29.3 51.9513C29.3 52.0925 29.3737 52.228 29.505 52.3279C29.6363 52.4277 29.8143 52.4838 30 52.4838ZM30 49.8212C30.1856 49.8212 30.3637 49.7651 30.4949 49.6653C30.6262 49.5654 30.7 49.4299 30.7 49.2887C30.7 49.1475 30.6262 49.012 30.4949 48.9122C30.3637 48.8123 30.1856 48.7562 30 48.7562C29.8143 48.7562 29.6363 48.8123 29.505 48.9122C29.3737 49.012 29.3 49.1475 29.3 49.2887C29.3 49.4299 29.3737 49.5654 29.505 49.6653C29.6363 49.7651 29.8143 49.8212 30 49.8212ZM30 47.1586C30.1856 47.1586 30.3637 47.1025 30.4949 47.0026C30.6262 46.9028 30.7 46.7673 30.7 46.6261C30.7 46.4849 30.6262 46.3494 30.4949 46.2495C30.3637 46.1497 30.1856 46.0936 30 46.0936C29.8143 46.0936 29.6363 46.1497 29.505 46.2495C29.3737 46.3494 29.3 46.4849 29.3 46.6261C29.3 46.7673 29.3737 46.9028 29.505 47.0026C29.6363 47.1025 29.8143 47.1586 30 47.1586ZM30 44.496C30.1856 44.496 30.3637 44.4399 30.4949 44.34C30.6262 44.2402 30.7 44.1047 30.7 43.9635C30.7 43.8223 30.6262 43.6868 30.4949 43.5869C30.3637 43.4871 30.1856 43.431 30 43.431C29.8143 43.431 29.6363 43.4871 29.505 43.5869C29.3737 43.6868 29.3 43.8223 29.3 43.9635C29.3 44.1047 29.3737 44.2402 29.505 44.34C29.6363 44.4399 29.8143 44.496 30 44.496ZM51 52.4838C51.1856 52.4838 51.3637 52.4277 51.4949 52.3279C51.6262 52.228 51.7 52.0925 51.7 51.9513C51.7 51.8101 51.6262 51.6746 51.4949 51.5748C51.3637 51.4749 51.1856 51.4188 51 51.4188C50.8143 51.4188 50.6363 51.4749 50.505 51.5748C50.3737 51.6746 50.3 51.8101 50.3 51.9513C50.3 52.0925 50.3737 52.228 50.505 52.3279C50.6363 52.4277 50.8143 52.4838 51 52.4838ZM51 49.8212C51.1856 49.8212 51.3637 49.7651 51.4949 49.6653C51.6262 49.5654 51.7 49.4299 51.7 49.2887C51.7 49.1475 51.6262 49.012 51.4949 48.9122C51.3637 48.8123 51.1856 48.7562 51 48.7562C50.8143 48.7562 50.6363 48.8123 50.505 48.9122C50.3737 49.012 50.3 49.1475 50.3 49.2887C50.3 49.4299 50.3737 49.5654 50.505 49.6653C50.6363 49.7651 50.8143 49.8212 51 49.8212ZM51 47.1586C51.1856 47.1586 51.3637 47.1025 51.4949 47.0026C51.6262 46.9028 51.7 46.7673 51.7 46.6261C51.7 46.4849 51.6262 46.3494 51.4949 46.2495C51.3637 46.1497 51.1856 46.0936 51 46.0936C50.8143 46.0936 50.6363 46.1497 50.505 46.2495C50.3737 46.3494 50.3 46.4849 50.3 46.6261C50.3 46.7673 50.3737 46.9028 50.505 47.0026C50.6363 47.1025 50.8143 47.1586 51 47.1586ZM51 44.496C51.1856 44.496 51.3637 44.4399 51.4949 44.34C51.6262 44.2402 51.7 44.1047 51.7 43.9635C51.7 43.8223 51.6262 43.6868 51.4949 43.5869C51.3637 43.4871 51.1856 43.431 51 43.431C50.8143 43.431 50.6363 43.4871 50.505 43.5869C50.3737 43.6868 50.3 43.8223 50.3 43.9635C50.3 44.1047 50.3737 44.2402 50.505 44.34C50.6363 44.4399 50.8143 44.496 51 44.496ZM30 55.1464C30.1856 55.1464 30.3637 55.0903 30.4949 54.9905C30.6262 54.8906 30.7 54.7551 30.7 54.6139C30.7 54.4727 30.6262 54.3372 30.4949 54.2374C30.3637 54.1375 30.1856 54.0814 30 54.0814C29.8143 54.0814 29.6363 54.1375 29.505 54.2374C29.3737 54.3372 29.3 54.4727 29.3 54.6139C29.3 54.7551 29.3737 54.8906 29.505 54.9905C29.6363 55.0903 29.8143 55.1464 30 55.1464ZM51 55.1464C51.1856 55.1464 51.3637 55.0903 51.4949 54.9905C51.6262 54.8906 51.7 54.7551 51.7 54.6139C51.7 54.4727 51.6262 54.3372 51.4949 54.2374C51.3637 54.1375 51.1856 54.0814 51 54.0814C50.8143 54.0814 50.6363 54.1375 50.505 54.2374C50.3737 54.3372 50.3 54.4727 50.3 54.6139C50.3 54.7551 50.3737 54.8906 50.505 54.9905C50.6363 55.0903 50.8143 55.1464 51 55.1464Z" fill="#90241D"/>
<path fill-rule="evenodd" clip-rule="evenodd" d="M31.4 53.549V55.6793H28.6L27.6102 56.4324C27.8636 56.6252 28.2136 56.7445 28.6 56.7445H31.4C31.7713 56.7445 32.1274 56.6323 32.39 56.4325C32.6525 56.2328 32.8 55.9618 32.8 55.6793V53.549C32.8 53.255 32.6432 52.9887 32.3898 52.7959L31.4 53.549Z" fill="#FCF062"/>
<path fill-rule="evenodd" clip-rule="evenodd" d="M52.4 52.4838H49.6C49.2287 52.4838 48.8726 52.596 48.6101 52.7958C48.3475 52.9956 48.2 53.2665 48.2 53.549V55.6793C48.2 55.9618 48.3475 56.2328 48.6101 56.4325C48.8726 56.6323 49.2287 56.7445 49.6 56.7445H52.4C52.7713 56.7445 53.1274 56.6323 53.3899 56.4325C53.6525 56.2328 53.8 55.9618 53.8 55.6793V53.549C53.8 53.2665 53.6525 52.9956 53.3899 52.7958C53.1274 52.596 52.7713 52.4838 52.4 52.4838ZM52.4 55.6793H49.6V53.549H52.4V55.6793Z" fill="#F0C419"/>
<path fill-rule="evenodd" clip-rule="evenodd" d="M52.4 53.549V55.6793H49.6L48.6102 56.4324C48.8636 56.6252 49.2136 56.7445 49.6 56.7445H52.4C52.7713 56.7445 53.1274 56.6323 53.39 56.4325C53.6525 56.2328 53.8 55.9618 53.8 55.6793V53.549C53.8 53.255 53.6432 52.9887 53.3898 52.7959L52.4 53.549Z" fill="#FCF062"/>
<path d="M61.5 41.3009C62.2721 41.3009 62.9 41.7785 62.9 42.3659V65.2643C62.9 65.8517 62.2721 66.3294 61.5 66.3294H19.5C18.7279 66.3294 18.1 65.8517 18.1 65.2643V42.3659C18.1 41.7785 18.7279 41.3009 19.5 41.3009H61.5ZM61.5 39.7033H19.5C18.5717 39.7033 17.6815 39.9838 17.0251 40.4832C16.3687 40.9825 16 41.6597 16 42.3659V65.2643C16 65.9705 16.3687 66.6477 17.0251 67.1471C17.6815 67.6464 18.5717 67.9269 19.5 67.9269H61.5C62.4283 67.9269 63.3185 67.6464 63.9749 67.1471C64.6313 66.6477 65 65.9705 65 65.2643V42.3659C65 41.6597 64.6313 40.9825 63.9749 40.4832C63.3185 39.9838 62.4283 39.7033 61.5 39.7033Z" fill="#B25A59"/>
</svg>
