<svg width="212" height="89" viewBox="0 0 212 89" fill="none" xmlns="http://www.w3.org/2000/svg">
<g filter="url(#filter0_d_1230_10)">
<path d="M39.2574 4.24264C41.6005 1.8995 45.3995 1.8995 47.7426 4.24264L80.7574 37.2574C83.1005 39.6005 83.1005 43.3995 80.7574 45.7426L47.7426 78.7574C45.3995 81.1005 41.6005 81.1005 39.2574 78.7574L6.24264 45.7426C3.8995 43.3995 3.8995 39.6005 6.24264 37.2574L39.2574 4.24264Z" fill="#2C2D32"/>
<path d="M122.257 4.24264C124.601 1.8995 128.399 1.8995 130.743 4.24264L163.757 37.2574C166.101 39.6005 166.101 43.3995 163.757 45.7426L130.743 78.7574C128.399 81.1005 124.601 81.1005 122.257 78.7574L89.2426 45.7426C86.8995 43.3995 86.8995 39.6005 89.2426 37.2574L122.257 4.24264Z" fill="#2C2D32"/>
<path d="M81.2574 4.24264C83.6005 1.8995 87.3995 1.8995 89.7426 4.24264L122.757 37.2574C125.101 39.6005 125.101 43.3995 122.757 45.7426L89.7426 78.7574C87.3995 81.1005 83.6005 81.1005 81.2574 78.7574L48.2426 45.7426C45.8995 43.3995 45.8995 39.6005 48.2426 37.2574L81.2574 4.24264Z" fill="#2C2D32"/>
<path d="M164.257 4.24264C166.601 1.8995 170.399 1.8995 172.743 4.24264L205.757 37.2574C208.101 39.6005 208.101 43.3995 205.757 45.7426L172.743 78.7574C170.399 81.1005 166.601 81.1005 164.257 78.7574L131.243 45.7426C128.899 43.3995 128.899 39.6005 131.243 37.2574L164.257 4.24264Z" fill="#2C2D32"/>
</g>
<defs>
<filter id="filter0_d_1230_10" x="0.485291" y="2.48529" width="211.029" height="86.0294" filterUnits="userSpaceOnUse" color-interpolation-filters="sRGB">
<feFlood flood-opacity="0" result="BackgroundImageFix"/>
<feColorMatrix in="SourceAlpha" type="matrix" values="0 0 0 0 0 0 0 0 0 0 0 0 0 0 0 0 0 0 127 0" result="hardAlpha"/>
<feOffset dy="4"/>
<feGaussianBlur stdDeviation="2"/>
<feComposite in2="hardAlpha" operator="out"/>
<feColorMatrix type="matrix" values="0 0 0 0 0 0 0 0 0 0 0 0 0 0 0 0 0 0 0.25 0"/>
<feBlend mode="normal" in2="BackgroundImageFix" result="effect1_dropShadow_1230_10"/>
<feBlend mode="normal" in="SourceGraphic" in2="effect1_dropShadow_1230_10" result="shape"/>
</filter>
</defs>
</svg>
